<?xml version="1.0" standalone="no"?>
<!DOCTYPE svg PUBLIC "-//W3C//DTD SVG 1.1//EN" "http://www.w3.org/Graphics/SVG/1.1/DTD/svg11.dtd" >
<svg xmlns="http://www.w3.org/2000/svg" xmlns:xlink="http://www.w3.org/1999/xlink" version="1.1" viewBox="-10 0 934 1000">
   <path fill="currentColor"
d="M628 18c198 107 267 354 153 552c-113 199 -366 273 -564 166c-7 -4 -15 -8 -22 -13c-6 -2 -13 -6 -19 -9c-9 -4 -17 -10 -25 -15c121 45 263 -57 328 -241c33 -96 39 -196 21 -281c4 66 -12 141 -52 205c-85 140 -248 181 -345 129c-6 -3 -11 -7 -16 -10
c82 28 207 -48 288 -180c80 -131 88 -271 20 -323c2 1 3 1 5 2l-4 -3c9 4 17 8 26 12c150 81 216 304 148 499c-40 114 -117 193 -205 223c114 -24 226 -104 295 -226c107 -187 76 -404 -66 -503c11 5 23 10 34 16zM594 2c142 99 173 316 66 503c-69 122 -181 202 -295 226
c88 -30 165 -109 205 -223c68 -195 2 -418 -148 -499c-9 -4 -17 -8 -26 -12l4 3c-2 -1 -3 -1 -5 -2c68 52 60 192 -20 323c-81 132 -206 208 -288 180c5 3 10 7 16 10c97 52 260 11 345 -129c40 -64 56 -139 52 -205c18 85 12 185 -21 281c-65 184 -207 286 -328 241
c8 5 16 11 25 15c6 3 13 7 19 9c7 5 15 9 22 13c198 107 451 33 564 -166c114 -198 45 -445 -153 -552c-11 -6 -23 -11 -34 -16zM475 182l51 -7c4 72 -13 152 -56 221c-93 152 -271 196 -379 137c-7 -3 -13 -7 -19 -11c-23 -17 -3 -55 24 -46c66 23 180 -44 257 -169
c75 -122 80 -247 27 -288c-16 -13 -10 -35 3 -43c1 0 10 -8 23 -3c9 4 19 8 28 13c163 88 232 325 161 530c-42 121 -125 207 -222 239l-13 -50c106 -22 212 -97 278 -213c102 -179 69 -380 -59 -469c-23 -16 -1 -56 25 -45c12 5 24 11 36 17v0c212 114 284 378 164 588
s-388 290 -599 176c-4 -2 -9 -4 -22 -13c-7 -3 -10 -4 -19 -9c-10 -5 -19 -11 -27 -17c-24 -16 -3 -55 24 -45c98 37 230 -45 293 -225c32 -92 37 -188 21 -268zM628 18c198 107 267 354 153 552c-113 199 -366 273 -564 166c-7 -4 -15 -8 -22 -13c-6 -2 -13 -6 -19 -9
c-9 -4 -17 -10 -25 -15c121 45 263 -57 328 -241c33 -96 39 -196 21 -281c4 66 -12 141 -52 205c-85 140 -248 181 -345 129c-6 -3 -11 -7 -16 -10c82 28 207 -48 288 -180c80 -131 88 -271 20 -323c2 1 3 1 5 2l-4 -3c9 4 17 8 26 12c150 81 216 304 148 499
c-40 114 -117 193 -205 223c114 -24 226 -104 295 -226c107 -187 76 -404 -66 -503c11 5 23 10 34 16z" />
</svg>
