<?xml version="1.0" standalone="no"?>
<!DOCTYPE svg PUBLIC "-//W3C//DTD SVG 1.1//EN" "http://www.w3.org/Graphics/SVG/1.1/DTD/svg11.dtd" >
<svg xmlns="http://www.w3.org/2000/svg" xmlns:xlink="http://www.w3.org/1999/xlink" version="1.1" viewBox="-10 0 934 1000">
   <path fill="currentColor"
d="M628 18c198 107 267 354 153 552c-78 137 -222 215 -369 215c-70 0 -159 -21 -217 -62c-6 -2 -13 -6 -19 -9c-9 -4 -17 -10 -25 -15c19 7 39 11 59 11c105 0 214 -97 269 -252c33 -96 39 -196 21 -281c4 66 -12 141 -52 205c-61 101 -164 151 -252 151
c-42 0 -74 -11 -109 -32c11 4 24 6 36 6c80 0 182 -72 252 -186c80 -131 88 -271 20 -323c2 1 3 1 5 2l-4 -3c9 4 17 8 26 12c150 81 216 304 148 499c-40 114 -117 193 -205 223c114 -24 226 -104 295 -226c107 -187 76 -404 -66 -503c11 5 23 10 34 16z" />
</svg>
