<?xml version="1.0" standalone="no"?>
<!DOCTYPE svg PUBLIC "-//W3C//DTD SVG 1.1//EN" "http://www.w3.org/Graphics/SVG/1.1/DTD/svg11.dtd" >
<svg xmlns="http://www.w3.org/2000/svg" xmlns:xlink="http://www.w3.org/1999/xlink" version="1.1" viewBox="-10 0 692 1000">
   <path fill="currentColor"
d="M208 0h284l-106 236h209l-421 552l117 -361h-204zM208 0l-121 427h204l-117 361l421 -552h-209l106 -236h-284zM516 11l-89 199h168c23 0 34 24 20 42l-420 552c-17 22 -54 3 -46 -24l106 -327h-168c-18 0 -30 -15 -25 -33l121 -427c3 -10 15 -19 25 -19h284
c20 0 32 18 24 37zM208 0h284l-106 236h209l-421 552l117 -361h-204z" />
</svg>
