<?xml version="1.0" standalone="no"?>
<!DOCTYPE svg PUBLIC "-//W3C//DTD SVG 1.1//EN" "http://www.w3.org/Graphics/SVG/1.1/DTD/svg11.dtd" >
<svg xmlns="http://www.w3.org/2000/svg" xmlns:xlink="http://www.w3.org/1999/xlink" version="1.1" viewBox="-10 0 970 1000">
   <path fill="currentColor"
d="M257 656l73 -223l-182 -129c-8 29 -12 60 -12 91c0 99 45 197 121 261zM674 678l-188 -134l-190 140c55 36 118 54 184 54c70 0 136 -21 194 -60zM236 306l110 78l25 -78h-135zM372 463l-45 137l117 -86zM485 483l93 -68l-37 -109h-118l-35 108zM640 594l-45 -131l-68 50
zM811 304l-175 129l75 216c96 -87 134 -221 100 -345zM165 257h222l67 -205c-126 9 -238 89 -289 205zM524 257l-44 -127l-41 127h85zM505 52l71 205h218c-50 -116 -162 -196 -289 -205zM593 306l27 78l105 -78h-132zM480 2c219 0 392 178 392 393c0 216 -176 392 -392 392
c-217 0 -393 -176 -393 -392c0 -44 8 -88 22 -129v-1c56 -157 204 -262 370 -263h1z" />
</svg>
