<?xml version="1.0" standalone="no"?>
<!DOCTYPE svg PUBLIC "-//W3C//DTD SVG 1.1//EN" "http://www.w3.org/Graphics/SVG/1.1/DTD/svg11.dtd" >
<svg xmlns="http://www.w3.org/2000/svg" xmlns:xlink="http://www.w3.org/1999/xlink" version="1.1" viewBox="-10 0 973 1000">
   <path fill="currentColor"
d="M857 274c12 38 18 78 18 119c0 218 -176 395 -394 395c-217 0 -394 -177 -394 -395c0 -217 177 -394 394 -394c42 0 82 7 120 19c-13 -2 -27 -3 -40 -3c-76 0 -151 29 -209 87c-117 116 -117 305 0 421c58 58 134 87 210 87s153 -29 211 -87c68 -68 96 -161 84 -249z" />
</svg>
