<?xml version="1.0" standalone="no"?>
<!DOCTYPE svg PUBLIC "-//W3C//DTD SVG 1.1//EN" "http://www.w3.org/Graphics/SVG/1.1/DTD/svg11.dtd" >
<svg xmlns="http://www.w3.org/2000/svg" xmlns:xlink="http://www.w3.org/1999/xlink" version="1.1" viewBox="-10 0 973 1000">
   <path fill="currentColor"
d="M857 274c12 38 18 78 18 119c0 218 -176 395 -394 395c-217 0 -394 -177 -394 -395c0 -217 177 -394 394 -394c42 0 82 7 120 19c-89 -12 -181 16 -249 84c-117 116 -117 305 0 421c116 116 304 116 421 0c68 -68 96 -161 84 -249zM601 18c-38 -12 -78 -19 -120 -19
c-217 0 -394 177 -394 394c0 218 177 395 394 395c218 0 394 -177 394 -395c0 -41 -6 -81 -18 -119c12 88 -16 181 -84 249c-117 116 -305 116 -421 0c-117 -116 -117 -305 0 -421c68 -68 160 -96 249 -84zM883 266c13 40 20 83 20 127c0 233 -189 422 -422 422
c-232 0 -421 -189 -421 -422c0 -232 189 -421 421 -421c45 0 88 7 128 20c28 9 18 56 -12 53c-80 -11 -164 15 -226 76c-106 106 -106 277 0 383s277 106 383 0v0c61 -62 87 -146 76 -227c-4 -29 44 -40 53 -11zM857 274c12 38 18 78 18 119c0 218 -176 395 -394 395
c-217 0 -394 -177 -394 -395c0 -217 177 -394 394 -394c42 0 82 7 120 19c-89 -12 -181 16 -249 84c-117 116 -117 305 0 421c116 116 304 116 421 0c68 -68 96 -161 84 -249z" />
</svg>
