<?xml version="1.0" standalone="no"?>
<!DOCTYPE svg PUBLIC "-//W3C//DTD SVG 1.1//EN" "http://www.w3.org/Graphics/SVG/1.1/DTD/svg11.dtd" >
<svg xmlns="http://www.w3.org/2000/svg" xmlns:xlink="http://www.w3.org/1999/xlink" version="1.1" viewBox="-10 0 974 1000">
   <path fill="currentColor"
d="M552 628c4 -8 7 -13 9 -19c9 -26 18 -53 27 -79c4 -12 9 -23 12 -35s7 -26 15 -36c33 -37 67 -73 101 -110c2 -3 6 -7 3 -11c-2 -4 -6 1 -8 2c-35 21 -70 41 -104 61c-15 9 -29 19 -44 26c-10 5 -15 11 -16 22c-1 13 -2 27 -4 40c-4 35 -7 70 1 105c3 10 2 21 8 34z
M298 721c-35 -26 -69 -51 -103 -76c-24 -18 -48 -36 -72 -55c-2 -2 -5 -4 -7 -5c-10 -4 -13 -11 -14 -22c-7 -147 -7 -293 -14 -440c-1 -12 3 -18 13 -21c22 -7 45 -14 66 -22c37 -16 75 -26 112 -41c9 -4 17 1 24 4s13 5 19 5s12 -2 18 -4c27 -10 83 -32 107 -41
c7 -3 15 -3 22 0c64 27 378 159 400 172c6 4 9 9 7 18c-11 76 -19 153 -32 229c-6 35 -11 69 -14 104c-5 48 -16 94 -18 142c0 7 -2 9 -9 11c-27 8 -53 18 -80 26c-44 14 -88 26 -131 41c-44 14 -89 26 -132 42c-7 3 -12 1 -12 -9c-1 -41 -8 -82 -13 -122s-6 -80 -13 -119
c-2 -11 -7 -15 -20 -21c-11 -4 -20 -11 -28 -19c-5 -5 -12 -8 -19 -11c-28 -13 -18 -49 -33 -66c-17 -19 -24 -44 -22 -70c4 -44 -18 -80 -23 -121c-1 -10 -12 -13 -19 -18c-13 -10 -27 -18 -41 -27c-10 -7 -21 -14 -31 -21c-3 -2 -7 -4 -10 -1c-3 2 -3 6 -2 10
c3 22 8 45 10 68c3 46 14 92 18 139c2 29 8 59 13 88c2 11 14 15 20 23c14 15 31 27 44 43c2 3 5 4 7 6c8 7 15 15 11 29c-15 47 -10 97 2 145c0 2 0 3 -1 7z" />
</svg>
