<?xml version="1.0" standalone="no"?>
<!DOCTYPE svg PUBLIC "-//W3C//DTD SVG 1.1//EN" "http://www.w3.org/Graphics/SVG/1.1/DTD/svg11.dtd" >
<svg xmlns="http://www.w3.org/2000/svg" xmlns:xlink="http://www.w3.org/1999/xlink" version="1.1" viewBox="-10 0 974 1000">
   <path fill="currentColor"
d="M621 406c-8 44 -40 72 -46 111c-1 9 -9 16 -17 20c1 -30 -4 -62 7 -90c9 -23 36 -30 56 -41zM552 628c4 -8 7 -13 9 -19c9 -26 18 -53 27 -79c4 -12 9 -23 12 -35s7 -26 15 -36c33 -37 67 -73 101 -110c2 -3 6 -7 3 -11c-2 -4 -6 1 -8 2c-35 21 -70 41 -104 61
c-15 9 -29 19 -44 26c-10 5 -15 11 -16 22c-1 13 -2 27 -4 40c-4 35 -7 70 1 105c3 10 2 21 8 34zM298 721c-35 -26 -69 -51 -103 -76c-24 -18 -48 -36 -72 -55c-2 -2 -5 -4 -7 -5c-10 -4 -13 -11 -14 -22c-7 -147 -7 -293 -14 -440c-1 -12 3 -18 13 -21
c22 -7 45 -14 66 -22c37 -16 75 -26 112 -41c9 -4 17 1 24 4c13 7 24 6 37 1c27 -10 83 -32 107 -41c7 -3 15 -3 22 0c64 27 378 159 400 172c6 4 9 9 7 18c-11 76 -19 153 -32 229c-6 35 -11 69 -14 104c-5 48 -16 94 -18 142c0 7 -2 9 -9 11c-27 8 -53 18 -80 26
c-44 14 -88 26 -131 41c-44 14 -89 26 -132 42c-7 3 -12 1 -12 -9c-1 -41 -8 -82 -13 -122s-6 -80 -13 -119c-2 -11 -7 -15 -20 -21c-11 -4 -20 -11 -28 -19c-5 -5 -12 -8 -19 -11c-28 -13 -18 -49 -33 -66c-17 -19 -24 -44 -22 -70c4 -44 -18 -80 -23 -121
c-1 -10 -12 -13 -19 -18c-13 -10 -27 -18 -41 -27c-10 -7 -21 -14 -31 -21c-3 -2 -7 -4 -10 -1c-3 2 -3 6 -2 10c3 22 8 45 10 68c3 46 14 92 18 139c2 29 8 59 13 88c2 11 14 15 20 23c14 15 31 27 44 43c2 3 5 4 7 6c8 7 15 15 11 29c-15 47 -10 97 2 145c0 2 0 3 -1 7z
M552 628c-6 -13 -5 -24 -8 -34c-8 -35 -5 -70 -1 -105c2 -13 3 -27 4 -40c1 -11 6 -17 16 -22c15 -7 29 -17 44 -26c34 -20 69 -40 104 -61c2 -1 6 -6 8 -2c3 4 -1 8 -3 11c-34 37 -68 73 -101 110c-8 10 -12 24 -15 36s-8 23 -12 35c-9 26 -18 53 -27 79c-2 6 -5 11 -9 19z
M564 522v1l1 -1c4 -13 8 -21 11 -33v0c3 -12 8 -31 20 -46v0c34 -38 68 -75 101 -111c1 0 1 -1 1 -1l29 27c0 1 -2 2 -4 3c-34 21 -69 41 -103 62c-14 7 -31 20 -46 27c-2 0 -2 1 -2 1v0c-1 13 -2 27 -4 41c-2 10 -3 20 -4 30zM298 721c1 -4 1 -5 1 -7
c-12 -48 -17 -98 -2 -145c4 -14 -3 -22 -11 -29c-2 -2 -5 -3 -7 -6c-13 -16 -30 -28 -44 -43c-6 -8 -18 -12 -20 -23c-5 -29 -11 -59 -13 -88c-4 -47 -15 -93 -18 -139c-2 -23 -7 -46 -10 -68c-1 -4 -1 -8 2 -10c3 -3 7 -1 10 1c10 7 21 14 31 21c14 9 28 17 41 27
c7 5 18 8 19 18c5 41 27 77 23 121c-2 26 5 51 22 70c15 17 5 53 33 66c7 3 14 6 19 11c8 8 17 15 28 19c13 6 18 10 20 21c7 39 8 79 13 119s12 81 13 122c0 10 5 12 12 9c43 -16 88 -28 132 -42c43 -15 87 -27 131 -41c27 -8 53 -18 80 -26c7 -2 9 -4 9 -11
c2 -48 13 -94 18 -142c3 -35 8 -69 14 -104c13 -76 21 -153 32 -229c2 -9 -1 -14 -7 -18c-22 -13 -336 -145 -400 -172c-7 -3 -15 -3 -22 0c-24 9 -80 31 -107 41c-13 5 -24 6 -37 -1c-7 -3 -15 -8 -24 -4c-37 15 -75 25 -112 41c-21 8 -44 15 -66 22c-10 3 -14 9 -13 21
c7 147 7 293 14 440c1 11 4 18 14 22c2 1 5 3 7 5c24 19 48 37 72 55c34 25 68 50 103 76zM284 741c-36 -26 -70 -51 -104 -76c-24 -18 -48 -37 -71 -55c-2 -2 -3 -2 -4 -3l1 1c-8 -4 -27 -14 -28 -44c-7 -133 -9 -307 -15 -440c-1 -18 5 -37 31 -45c22 -7 43 -14 64 -22
c40 -17 28 -6 111 -41c10 -4 23 -6 45 6c6 3 11 2 18 -1c26 -10 81 -31 106 -41c13 -5 28 -5 41 1c60 25 378 159 402 173c11 6 23 19 20 42c-11 75 -20 154 -33 230c-5 34 -10 68 -14 103c-5 50 -16 88 -18 140c0 12 -5 28 -26 34c-26 7 -50 16 -79 25
c-45 14 -87 26 -131 41c-45 15 -86 25 -131 42c-13 5 -44 11 -46 -32c-1 -39 -7 -77 -12 -119c-6 -41 -6 -75 -13 -118c0 0 -2 0 -5 -2c-15 -6 -27 -15 -36 -24c-2 -2 -5 -4 -12 -7c-41 -18 -34 -63 -42 -72c-22 -24 -30 -57 -28 -88c3 -34 -13 -54 -22 -111
c-8 -5 2 2 -9 -6c-12 -9 -25 -17 -40 -26v0c2 10 3 21 4 33c4 46 14 92 18 139c2 27 8 55 13 83c13 14 -8 -12 15 13c11 12 37 37 43 44c2 1 2 1 4 3c11 9 29 25 19 56c-12 41 -9 85 3 131c2 7 0 16 -1 16v1c-3 19 -23 27 -38 16zM552 628c4 -8 7 -13 9 -19
c9 -26 18 -53 27 -79c4 -12 9 -23 12 -35s7 -26 15 -36c33 -37 67 -73 101 -110c2 -3 6 -7 3 -11c-2 -4 -6 1 -8 2c-35 21 -70 41 -104 61c-15 9 -29 19 -44 26c-10 5 -15 11 -16 22c-1 13 -2 27 -4 40c-4 35 -7 70 1 105c3 10 2 21 8 34zM298 721c-35 -26 -69 -51 -103 -76
c-24 -18 -48 -36 -72 -55c-2 -2 -5 -4 -7 -5c-10 -4 -13 -11 -14 -22c-7 -147 -7 -293 -14 -440c-1 -12 3 -18 13 -21c22 -7 45 -14 66 -22c37 -16 75 -26 112 -41c9 -4 17 1 24 4c13 7 24 6 37 1c27 -10 83 -32 107 -41c7 -3 15 -3 22 0c64 27 378 159 400 172
c6 4 9 9 7 18c-11 76 -19 153 -32 229c-6 35 -11 69 -14 104c-5 48 -16 94 -18 142c0 7 -2 9 -9 11c-27 8 -53 18 -80 26c-44 14 -88 26 -131 41c-44 14 -89 26 -132 42c-7 3 -12 1 -12 -9c-1 -41 -8 -82 -13 -122s-6 -80 -13 -119c-2 -11 -7 -15 -20 -21
c-11 -4 -20 -11 -28 -19c-5 -5 -12 -8 -19 -11c-28 -13 -18 -49 -33 -66c-17 -19 -24 -44 -22 -70c4 -44 -18 -80 -23 -121c-1 -10 -12 -13 -19 -18c-13 -10 -27 -18 -41 -27c-10 -7 -21 -14 -31 -21c-3 -2 -7 -4 -10 -1c-3 2 -3 6 -2 10c3 22 8 45 10 68c3 46 14 92 18 139
c2 29 8 59 13 88c2 11 14 15 20 23c14 15 31 27 44 43c2 3 5 4 7 6c8 7 15 15 11 29c-15 47 -10 97 2 145c0 2 0 3 -1 7z" />
</svg>
