<?xml version="1.0" standalone="no"?>
<!DOCTYPE svg PUBLIC "-//W3C//DTD SVG 1.1//EN" "http://www.w3.org/Graphics/SVG/1.1/DTD/svg11.dtd" >
<svg xmlns="http://www.w3.org/2000/svg" xmlns:xlink="http://www.w3.org/1999/xlink" version="1.1" viewBox="-10 0 761 1000">
   <path fill="currentColor"
d="M524 638c3 -5 -3 -12 -8 -8c-8 4 -19 10 -30 16c-19 9 -39 13 -58 13c-66 0 -127 -48 -130 -118c-1 -35 6 -66 9 -80c1 -3 -3 -6 -6 -4c-53 33 -44 94 -44 94c-57 -78 -9 -164 18 -202c4 -6 -3 -13 -9 -10c-97 44 -145 153 -105 252c31 80 112 127 198 127
c15 0 30 -1 45 -4h1s76 -12 119 -76zM587 209c27 57 78 177 77 283c-3 164 -137 296 -306 296h-11c-281 -9 -393 -368 -155 -513c2 -1 4 -2 7 -4c133 -77 107 -193 63 -249c-7 -9 2 -21 13 -19c56 10 165 47 203 189c7 25 16 74 12 136c-1 12 10 21 21 21
c17 0 32 -29 36 -42c6 -19 13 -50 19 -78c2 -6 3 -11 4 -17c1 -8 13 -10 17 -3z" />
</svg>
