<?xml version="1.0" standalone="no"?>
<!DOCTYPE svg PUBLIC "-//W3C//DTD SVG 1.1//EN" "http://www.w3.org/Graphics/SVG/1.1/DTD/svg11.dtd" >
<svg xmlns="http://www.w3.org/2000/svg" xmlns:xlink="http://www.w3.org/1999/xlink" version="1.1" viewBox="-10 0 761 1000">
   <path fill="currentColor"
d="M524 638c3 -5 -3 -12 -8 -8c-8 4 -19 10 -30 16c-84 40 -184 -15 -188 -105c-1 -35 6 -66 9 -80c1 -3 -3 -6 -6 -4c-53 33 -44 94 -44 94c-57 -78 -9 -164 18 -202c4 -6 -3 -13 -9 -10c-97 44 -145 153 -105 252c37 94 142 143 243 123h1s76 -12 119 -76zM587 209
c27 57 78 177 77 283c-3 164 -137 296 -306 296h-11c-281 -9 -393 -368 -155 -513c2 -1 4 -2 7 -4c133 -77 107 -193 63 -249c-7 -9 2 -21 13 -19c56 10 165 47 203 189c7 25 16 74 12 136c-1 19 25 29 37 13c9 -11 17 -23 20 -34c6 -19 13 -50 19 -78c2 -6 3 -11 4 -17
c1 -8 13 -10 17 -3zM257 551c0 0 -9 -61 44 -94c3 -2 7 1 6 4c-3 14 -10 45 -9 80c4 90 104 145 188 105c11 -6 22 -12 30 -16c5 -4 11 3 8 8c-43 64 -119 76 -119 76h-1c-101 20 -206 -29 -243 -123c-40 -99 8 -208 105 -252c6 -3 13 4 9 10c-27 38 -75 124 -18 202z
M404 690h-3s10 -2 24 -7c-63 -1 -135 -44 -148 -118c-1 1 -20 28 -40 0c-41 -56 -36 -117 -18 -163c-17 17 -71 92 -35 180c33 83 127 127 220 108zM587 209c-4 -7 -16 -5 -17 3c-1 6 -2 11 -4 17c-6 28 -13 59 -19 78c-3 11 -11 23 -20 34c-12 16 -38 6 -37 -13
c4 -62 -5 -111 -12 -136c-38 -142 -147 -179 -203 -189c-11 -2 -20 10 -13 19c44 56 70 172 -63 249c-3 2 -5 3 -7 4c-238 145 -126 504 155 513h11c169 0 303 -132 306 -296c1 -106 -50 -226 -77 -283zM604 191l5 8c27 57 81 181 79 294c-3 177 -148 319 -330 319h-12
c-308 -10 -422 -402 -167 -557c2 -2 5 -3 8 -5c120 -70 90 -169 56 -213c-21 -26 5 -64 36 -58c61 11 181 52 223 206c7 27 16 75 13 131c3 -4 7 -11 9 -16c5 -18 12 -47 19 -77c1 -6 2 -11 3 -14c4 -29 40 -38 58 -18zM524 638c3 -5 -3 -12 -8 -8c-8 4 -19 10 -30 16
c-84 40 -184 -15 -188 -105c-1 -35 6 -66 9 -80c1 -3 -3 -6 -6 -4c-53 33 -44 94 -44 94c-57 -78 -9 -164 18 -202c4 -6 -3 -13 -9 -10c-97 44 -145 153 -105 252c37 94 142 143 243 123h1s76 -12 119 -76zM587 209c27 57 78 177 77 283c-3 164 -137 296 -306 296h-11
c-281 -9 -393 -368 -155 -513c2 -1 4 -2 7 -4c133 -77 107 -193 63 -249c-7 -9 2 -21 13 -19c56 10 165 47 203 189c7 25 16 74 12 136c-1 19 25 29 37 13c9 -11 17 -23 20 -34c6 -19 13 -50 19 -78c2 -6 3 -11 4 -17c1 -8 13 -10 17 -3z" />
</svg>
