<?xml version="1.0" standalone="no"?>
<!DOCTYPE svg PUBLIC "-//W3C//DTD SVG 1.1//EN" "http://www.w3.org/Graphics/SVG/1.1/DTD/svg11.dtd" >
<svg xmlns="http://www.w3.org/2000/svg" xmlns:xlink="http://www.w3.org/1999/xlink" version="1.1" viewBox="-10 0 956 1000">
   <path fill="currentColor"
d="M560 -1l55 95l-71 48l111 64l6 -85h109l15 92l73 60l-55 94l-77 -37v128l77 -37l55 94l-73 59l-15 93h-109l-6 -86l-111 64l71 49l-55 94l-87 -33l-88 33l-55 -94l71 -49l-110 -64l-7 86h-109l-15 -93l-73 -59l55 -94l77 37v-128l-77 37l-55 -94l73 -60l15 -92h109l7 85
l110 -64l-71 -48l55 -95l88 34zM502 226l101 59l47 -24l1 -7l-147 -85l-5 4zM295 261l47 24l101 -59l3 -53l-5 -4l-147 85zM262 478l7 3l44 -29v-117l-44 -29l-7 3v169zM632 452l45 29l6 -3v-169l-6 -3l-45 29v117zM499 614l5 4l147 -84l-1 -7l-47 -24l-101 59zM294 534
l147 84l5 -4l-3 -52l-101 -59l-47 24zM262 478v-169l7 -3l44 29v117l-44 29zM289 435l-3 3v-88l3 2v83zM294 534l1 -7l47 -24l101 59l3 52l-5 4zM341 534l4 -2l72 41v5zM499 614l3 -52l101 -59l47 24l1 7l-147 84zM528 578v-5l72 -41l4 2zM295 261l-1 -7l147 -85l5 4l-3 53
l-101 59zM345 256l-4 -2l76 -44v4zM502 226l-3 -53l5 -4l147 85l-1 7l-47 24zM528 214v-4l76 44l-4 2zM632 452v-117l45 -29l6 3v169l-6 3zM659 438l-3 -3v-83l3 -2v88zM473 33l-88 -34l-55 95l71 48l-110 64l-7 -85h-109l-15 92l-73 60l55 94l77 -37v128l-77 -37l-55 94
l73 59l15 93h109l7 -86l110 64l-71 49l55 94l88 -33l87 33l55 -94l-71 -49l111 -64l6 86h109l15 -93l73 -59l-55 -94l-77 37v-128l77 37l55 -94l-73 -60l-15 -92h-109l-6 85l-111 -64l71 -48l-55 -95zM630 117l-35 24l36 20l3 -42c1 -14 13 -25 27 -25h109c13 0 25 10 27 22
l13 83l65 53c10 8 13 23 6 34l-54 95c-7 12 -23 16 -36 10l-38 -18v42l38 -19c13 -6 29 -1 36 11l54 94c7 11 4 27 -6 35l-65 53l-13 82c-2 13 -14 23 -27 23h-109c-14 0 -26 -11 -27 -25l-3 -43l-36 21l35 24c11 8 15 24 8 36l-54 95c-6 11 -21 16 -33 12l-78 -30l-79 30
c-11 4 -26 -1 -33 -12l-54 -95c-7 -12 -3 -28 8 -36l35 -24l-36 -21l-3 43c-1 14 -13 25 -27 25h-109c-13 0 -25 -10 -27 -23l-13 -82l-65 -53c-10 -8 -13 -24 -6 -35l55 -94c7 -12 22 -17 35 -11l38 19v-42l-38 18c-13 6 -28 2 -35 -10l-55 -95c-7 -11 -4 -26 6 -34l65 -53
l13 -83c2 -12 14 -22 27 -22h109c14 0 26 11 27 25l3 42l36 -20l-35 -24c-11 -8 -15 -24 -8 -36l54 -95c7 -11 22 -16 33 -12l79 30l78 -30c12 -4 27 1 33 12l54 95c7 12 3 28 -8 36zM560 -1l55 95l-71 48l111 64l6 -85h109l15 92l73 60l-55 94l-77 -37v128l77 -37l55 94
l-73 59l-15 93h-109l-6 -86l-111 64l71 49l-55 94l-87 -33l-88 33l-55 -94l71 -49l-110 -64l-7 86h-109l-15 -93l-73 -59l55 -94l77 37v-128l-77 37l-55 -94l73 -60l15 -92h109l7 85l110 -64l-71 -48l55 -95l88 34zM502 226l101 59l47 -24l1 -7l-147 -85l-5 4zM295 261
l47 24l101 -59l3 -53l-5 -4l-147 85zM262 478l7 3l44 -29v-117l-44 -29l-7 3v169zM632 452l45 29l6 -3v-169l-6 -3l-45 29v117zM499 614l5 4l147 -84l-1 -7l-47 -24l-101 59zM294 534l147 84l5 -4l-3 -52l-101 -59l-47 24z" />
</svg>
