<?xml version="1.0" standalone="no"?>
<!DOCTYPE svg PUBLIC "-//W3C//DTD SVG 1.1//EN" "http://www.w3.org/Graphics/SVG/1.1/DTD/svg11.dtd" >
<svg xmlns="http://www.w3.org/2000/svg" xmlns:xlink="http://www.w3.org/1999/xlink" version="1.1" viewBox="-10 0 974 1000">
   <path fill="currentColor"
d="M482 602c55 0 108 -22 147 -61c81 -81 81 -213 0 -294c-39 -40 -92 -61 -147 -61c-56 0 -108 21 -147 61c-81 81 -81 213 0 294c39 39 91 61 147 61zM482 173c56 0 113 22 156 65c86 86 86 225 0 311c-43 44 -100 65 -156 65c-57 0 -113 -21 -156 -65
c-86 -86 -86 -225 0 -311c43 -43 99 -65 156 -65zM482 198c52 0 101 20 138 57c76 77 76 201 0 277c-37 37 -86 57 -138 57s-102 -20 -139 -57c-76 -76 -76 -200 0 -277c37 -37 87 -57 139 -57zM220 132l33 121c11 -18 24 -35 38 -50c15 -15 32 -28 50 -39zM203 115l46 171
c12 -27 29 -52 51 -74s48 -39 74 -51zM238 149l74 20c-10 8 -20 17 -29 26s-18 18 -26 29zM743 456l109 -62l-109 -63c10 41 10 84 0 125zM877 394l-154 -89c21 57 21 120 0 178zM760 355l67 39l-67 38c4 -25 4 -51 0 -77zM711 253l32 -121l-120 32c18 11 34 24 49 39
s28 32 39 50zM761 115l-172 46c27 12 52 29 74 51c23 22 40 47 52 74zM726 149l-20 75c-8 -11 -16 -20 -25 -29s-19 -18 -29 -26zM482 24l-63 108c21 -5 42 -7 63 -7s42 2 62 7zM482 -1l-89 154c29 -11 59 -16 89 -16s60 5 89 16zM482 48l38 67c-12 -2 -25 -3 -38 -3
s-26 1 -39 3zM112 394l108 62c-10 -41 -10 -84 0 -125zM241 305l-154 89l154 89c-21 -58 -21 -121 0 -178zM136 394l67 -39c-3 26 -3 52 0 77zM623 623l120 32l-32 -121c-11 18 -24 35 -39 50s-31 28 -49 39zM761 673l-46 -172c-13 27 -29 52 -52 74c-22 22 -47 39 -74 52z
M706 564l20 74l-74 -20c10 -8 20 -16 29 -25s17 -19 25 -29zM419 655l63 109l62 -109c-20 5 -41 8 -62 8s-42 -3 -63 -8zM482 788l89 -154c-29 11 -59 16 -89 16s-60 -5 -89 -16zM520 672l-38 67l-39 -67c13 2 26 3 39 3s26 -1 38 -3zM253 534l-33 121l121 -32
c-18 -11 -35 -24 -50 -39c-14 -15 -27 -31 -38 -50zM249 501l-46 172l171 -46c-26 -13 -52 -30 -74 -52s-39 -47 -51 -74zM238 638l20 -74c7 10 16 20 25 29s19 17 29 25zM482 602c-56 0 -108 -22 -147 -61c-81 -81 -81 -213 0 -294c39 -40 91 -61 147 -61
c55 0 108 21 147 61c81 81 81 213 0 294c-39 39 -92 61 -147 61zM482 580c50 0 96 -20 131 -55c73 -72 73 -190 0 -263c-35 -35 -81 -54 -131 -54s-97 19 -132 54v0c-72 73 -72 191 0 263v0c35 35 82 55 132 55zM203 673l171 -46c-26 -13 -52 -30 -74 -52s-39 -47 -51 -74z
M181 667l47 -172c5 -20 32 -23 41 -3c11 25 27 48 47 68v0c20 20 43 35 68 47c19 9 17 35 -4 41l-172 46c-17 5 -31 -9 -27 -27zM87 394l154 89c-21 -58 -21 -121 0 -178zM76 375l154 -89c19 -11 39 6 32 26c-20 53 -20 110 0 163c7 20 -13 37 -32 27l-154 -89
c-16 -9 -16 -29 0 -38zM482 173c-57 0 -113 22 -156 65c-86 86 -86 225 0 311c43 44 99 65 156 65c56 0 113 -21 156 -65c86 -86 86 -225 0 -311c-43 -43 -100 -65 -156 -65zM482 151c62 0 124 24 171 71c95 95 95 248 0 343c-47 47 -109 71 -171 71s-124 -24 -171 -71
c-95 -95 -95 -248 0 -343c47 -47 109 -71 171 -71zM482 198c-52 0 -102 20 -139 57c-76 77 -76 201 0 277c37 37 87 57 139 57s101 -20 138 -57c76 -76 76 -200 0 -277c-37 -37 -86 -57 -138 -57zM482 176c58 0 113 23 154 64v0c85 85 85 223 0 307v0c-41 41 -96 64 -154 64
s-113 -23 -154 -64v0c-85 -84 -85 -222 0 -307c41 -41 96 -64 154 -64zM723 483l154 -89l-154 -89c21 57 21 120 0 178zM734 286l153 89c16 9 16 29 0 38l-153 89c-19 10 -39 -7 -32 -27c19 -53 19 -110 0 -163c-7 -20 13 -37 32 -26zM374 161l-171 -46l46 171
c12 -27 29 -52 51 -74s48 -39 74 -51zM228 292l-46 -172c-5 -17 9 -31 26 -27l172 46c21 6 23 33 4 42c-25 11 -48 26 -68 46v0c-21 21 -36 44 -47 68c-9 20 -36 18 -41 -3zM571 153l-89 -154l-89 154c29 -11 59 -16 89 -16s60 5 89 16zM374 142l89 -154c9 -16 29 -16 38 0
l89 154c10 18 -7 39 -27 31c-26 -9 -54 -14 -81 -14c-28 0 -55 5 -81 14c-21 8 -38 -13 -27 -31zM715 286l46 -171l-172 46c27 12 52 29 74 51c23 22 40 47 52 74zM583 139l172 -46c18 -4 32 10 27 27l-46 172c-6 21 -32 23 -41 3c-11 -24 -27 -47 -47 -68
c-20 -20 -43 -35 -68 -46c-19 -9 -17 -36 3 -42zM393 634l89 154l89 -154c-29 11 -59 16 -89 16s-60 -5 -89 -16zM590 645l-89 154c-9 16 -29 16 -38 0l-89 -154c-11 -18 6 -39 26 -31c27 10 54 14 82 14c27 0 55 -4 81 -14c20 -7 37 13 27 31zM589 627l172 46l-46 -172
c-13 27 -29 52 -52 74c-22 22 -47 39 -74 52zM736 495l46 172c5 18 -9 32 -27 27l-171 -46c-21 -6 -23 -32 -4 -41c25 -12 48 -27 68 -47v0c20 -20 36 -43 47 -68c9 -20 36 -17 41 3zM482 602c-56 0 -108 -22 -147 -61c-81 -81 -81 -213 0 -294c39 -40 91 -61 147 -61
c55 0 108 21 147 61c81 81 81 213 0 294c-39 39 -92 61 -147 61zM482 173c56 0 113 22 156 65c86 86 86 225 0 311c-43 44 -100 65 -156 65c-57 0 -113 -21 -156 -65c-86 -86 -86 -225 0 -311c43 -43 99 -65 156 -65zM482 198c-52 0 -102 20 -139 57c-76 77 -76 201 0 277
c37 37 87 57 139 57s101 -20 138 -57c76 -76 76 -200 0 -277c-37 -37 -86 -57 -138 -57zM253 253l-33 -121l121 32c-18 11 -35 24 -50 39c-14 15 -27 32 -38 50zM249 286l-46 -171l171 46c-26 12 -52 29 -74 51s-39 47 -51 74zM312 169l-74 -20l19 75c8 -11 17 -20 26 -29
s19 -18 29 -26zM852 394l-109 62c10 -41 10 -84 0 -125zM723 305l154 89l-154 89c21 -58 21 -121 0 -178zM827 394l-67 -39c4 26 4 52 0 77zM743 132l-32 121c-11 -18 -24 -35 -39 -50s-31 -28 -49 -39zM589 161l172 -46l-46 171c-12 -27 -29 -52 -52 -74
c-22 -22 -47 -39 -74 -51zM706 224l20 -75l-74 20c10 8 20 17 29 26s17 18 25 29zM419 132l63 -108l62 108c-20 -5 -41 -7 -62 -7s-42 2 -63 7zM393 153l89 -154l89 154c-29 -11 -59 -16 -89 -16s-60 5 -89 16zM520 115l-38 -67l-39 67c13 -2 26 -3 39 -3s26 1 38 3z
M220 456l-108 -62l108 -63c-10 41 -10 84 0 125zM87 394l154 -89c-21 57 -21 120 0 178zM203 355l-67 39l67 38c-3 -25 -3 -51 0 -77zM743 655l-120 -32c18 -11 34 -24 49 -39s28 -32 39 -50zM715 501l46 172l-172 -46c27 -13 52 -30 74 -52c23 -22 39 -47 52 -74zM726 638
l-20 -74c-8 10 -16 20 -25 29s-19 17 -29 25zM482 764l-63 -109c21 5 42 8 63 8s42 -3 62 -8zM571 634l-89 154l-89 -154c29 11 59 16 89 16s60 -5 89 -16zM482 739l38 -67c-12 2 -25 3 -38 3s-26 -1 -39 -3zM220 655l33 -121c11 19 24 35 38 50c15 15 32 28 50 39zM203 673
l46 -172c12 27 29 52 51 74s48 39 74 52zM258 564l-20 74l74 -20c-10 -8 -20 -16 -29 -25s-18 -19 -25 -29z" />
</svg>
