<?xml version="1.0" standalone="no"?>
<!DOCTYPE svg PUBLIC "-//W3C//DTD SVG 1.1//EN" "http://www.w3.org/Graphics/SVG/1.1/DTD/svg11.dtd" >
<svg xmlns="http://www.w3.org/2000/svg" xmlns:xlink="http://www.w3.org/1999/xlink" version="1.1" viewBox="-10 0 974 1000">
   <path fill="currentColor"
d="M463 681c4 8 4 18 0 26c-5 8 -14 13 -23 13c-8 0 -19 -5 -23 -13c-5 -9 -12 -17 -19 -23l-76 -65l-11 -1s-9 5 -15 11c-8 7 -15 18 -16 20c-13 22 -49 57 -85 91c-6 6 -24 23 -35 33l6 6l1 9h-47c-18 0 -33 -14 -33 -32v-47l9 1l6 5c11 -11 27 -28 33 -34
c34 -36 70 -73 92 -85c2 -1 13 -9 20 -17c5 -5 10 -15 10 -15l-1 -11l-64 -75c-7 -8 -15 -14 -24 -20c-2 -1 -3 -2 -5 -4c-12 -12 -10 -32 6 -41c8 -5 18 -5 26 0s12 12 13 20c1 6 3 11 7 14l69 60c165 -180 255 -285 424 -468c66 -24 168 -38 169 -38c-1 1 -17 101 -40 167
c-184 168 -289 258 -469 423l60 70c4 4 9 6 14 6c8 1 16 6 21 14z" />
</svg>
