<?xml version="1.0" standalone="no"?>
<!DOCTYPE svg PUBLIC "-//W3C//DTD SVG 1.1//EN" "http://www.w3.org/Graphics/SVG/1.1/DTD/svg11.dtd" >
<svg xmlns="http://www.w3.org/2000/svg" xmlns:xlink="http://www.w3.org/1999/xlink" version="1.1" viewBox="-10 0 629 1000">
   <path fill="currentColor"
d="M231 770l75 -294h-188c-24 0 -38 -26 -25 -47l269 -425c9 -14 31 -4 27 12l-76 294h188c24 0 39 26 26 47l-270 425c-9 14 -30 4 -26 -12zM306 476l-75 294c-4 16 17 26 26 12l270 -425c13 -21 -2 -47 -26 -47h-188l76 -294c4 -16 -18 -26 -27 -12l-269 425
c-13 21 1 47 25 47h188zM204 763l66 -259h-152c-45 0 -74 -50 -49 -89l270 -425c23 -38 91 -23 76 33l-66 259h152c45 0 74 50 49 89l-269 425c-24 38 -91 21 -77 -33zM231 770l75 -294h-188c-24 0 -38 -26 -25 -47l269 -425c9 -14 31 -4 27 12l-76 294h188
c24 0 39 26 26 47l-270 425c-9 14 -30 4 -26 -12z" />
</svg>
