<?xml version="1.0" standalone="no"?>
<!DOCTYPE svg PUBLIC "-//W3C//DTD SVG 1.1//EN" "http://www.w3.org/Graphics/SVG/1.1/DTD/svg11.dtd" >
<svg xmlns="http://www.w3.org/2000/svg" xmlns:xlink="http://www.w3.org/1999/xlink" version="1.1" viewBox="-10 0 968 1000">
   <path fill="currentColor"
d="M534 424l-136 -203l-91 90l203 137c3 2 6 3 9 3c13 0 23 -15 15 -27zM185 71l152 126l101 -101c6 -6 14 -9 21 -9c8 0 16 3 21 9c12 11 12 30 0 42l-20 20l408 603c7 11 -2 24 -12 24c-3 0 -5 -1 -8 -3l-603 -408l-21 20c-5 6 -13 9 -21 9c-7 0 -15 -3 -21 -9
c-12 -12 -12 -31 0 -42l101 -101l-126 -153c-6 3 -13 4 -19 4c-13 0 -26 -5 -36 -15c-19 -19 -19 -51 0 -71c10 -10 23 -15 36 -15s26 5 36 15c14 15 18 37 11 55z" />
</svg>
