<?xml version="1.0" standalone="no"?>
<!DOCTYPE svg PUBLIC "-//W3C//DTD SVG 1.1//EN" "http://www.w3.org/Graphics/SVG/1.1/DTD/svg11.dtd" >
<svg xmlns="http://www.w3.org/2000/svg" xmlns:xlink="http://www.w3.org/1999/xlink" version="1.1" viewBox="-10 0 968 1000">
   <path fill="currentColor"
d="M534 424l-136 -203l-91 90l203 137c16 10 36 -6 24 -24zM337 197l101 -101c12 -12 31 -12 42 0c12 11 12 30 0 42l-20 20l408 603c9 14 -7 30 -20 21l-603 -408l-21 20c-11 12 -30 12 -42 0s-12 -31 0 -42l101 -101l-126 -153c-18 8 -40 4 -55 -11c-19 -19 -19 -51 0 -71
c20 -20 52 -20 72 0c14 15 18 37 11 55zM398 221l136 203c12 18 -8 34 -24 24l-203 -137zM513 438l-119 -177l-47 46l177 119zM337 197l-152 -126c7 -18 3 -40 -11 -55c-20 -20 -52 -20 -72 0c-19 20 -19 52 0 71c15 15 37 19 55 11l126 153l-101 101c-12 11 -12 30 0 42
s31 12 42 0l21 -20l603 408c13 9 29 -7 20 -21l-408 -603l20 -20c12 -12 12 -31 0 -42c-11 -12 -30 -12 -42 0zM213 61l122 101l85 -84c21 -22 57 -22 78 0c22 21 22 57 0 78l-5 6l396 585c23 34 -14 84 -56 56l-585 -396l-6 5c-21 22 -56 22 -78 0s-22 -57 0 -78l84 -85
l-100 -122c-22 3 -46 -4 -64 -22c-29 -29 -29 -77 0 -107c30 -29 78 -30 108 0c17 17 24 41 21 63z" />
</svg>
