<?xml version="1.0" standalone="no"?>
<!DOCTYPE svg PUBLIC "-//W3C//DTD SVG 1.1//EN" "http://www.w3.org/Graphics/SVG/1.1/DTD/svg11.dtd" >
<svg xmlns="http://www.w3.org/2000/svg" xmlns:xlink="http://www.w3.org/1999/xlink" version="1.1" viewBox="-10 0 972 1000">
   <path fill="currentColor"
d="M867 5c5 5 10 13 7 26c-6 21 -12 43 -18 64l-11 43c-2 8 -8 15 -16 17c-5 2 -15 3 -24 -6s-5 -23 -1 -38l-80 80c53 59 91 125 103 205c4 26 5 52 3 81c-3 53 -20 108 -46 155c-3 7 -7 13 -10 20c-6 14 -11 27 -13 39c-1 3 -1 7 0 12c0 1 0 3 5 3c7 0 15 0 23 5
c16 9 23 27 19 44c-4 18 -19 31 -37 32h-4h-5c-43 0 -75 -26 -79 -70c-3 -26 2 -50 8 -69l-181 -181v-1c-5 -4 -5 -12 0 -17l24 -24c4 -4 12 -4 17 0l164 164v-1c24 -41 36 -86 37 -132c0 -76 -33 -153 -82 -210l-76 76c-26 26 -52 52 -79 78l-29 30c-1 1 -2 1 -2 2l-68 67
v22v22s-3 15 -8 21c-32 32 -64 64 -96 95c-3 3 -7 7 -13 8c-12 3 -25 -5 -28 -18c-2 -12 -5 -25 -8 -37l-35 -8c-4 -1 -16 -4 -20 -17c-2 -6 -2 -15 7 -24l96 -96c5 -6 12 -8 19 -8s14 -1 21 -1h25l68 -68l30 -30c12 -13 24 -25 36 -37l119 -118c-62 -51 -128 -79 -209 -81
c-11 1 -23 1 -34 3c-35 4 -68 17 -99 34l165 165c5 5 5 13 0 17l-23 24l-1 1c-4 4 -7 7 -16 -1h-1c-1 -1 -2 -2 -2 -3c-9 -7 -22 -20 -44 -42l-124 -124c-4 -5 -9 -9 -13 -13c-22 6 -43 9 -64 9c-41 -2 -72 -30 -75 -71c-1 -10 -2 -20 3 -31c6 -16 21 -26 38 -26
c22 0 40 18 40 40v3v4c1 1 1 2 2 2c7 1 15 0 25 -3c18 -5 35 -14 48 -21c55 -29 116 -47 179 -47c97 0 188 40 259 106c21 -20 57 -56 81 -81c-9 3 -17 6 -24 6c-5 0 -9 -1 -13 -5c-7 -6 -10 -15 -8 -23c2 -9 9 -15 19 -18c17 -4 34 -9 51 -13l52 -14c6 -2 17 -5 26 3z" />
</svg>
