<?xml version="1.0" standalone="no"?>
<!DOCTYPE svg PUBLIC "-//W3C//DTD SVG 1.1//EN" "http://www.w3.org/Graphics/SVG/1.1/DTD/svg11.dtd" >
<svg xmlns="http://www.w3.org/2000/svg" xmlns:xlink="http://www.w3.org/1999/xlink" version="1.1" viewBox="-10 0 970 1000">
   <path fill="currentColor"
d="M448 590c11 2 22 3 33 3c95 0 179 -69 195 -167c18 -108 -56 -210 -164 -228c-11 -2 -21 -2 -31 -2c-96 0 -181 69 -197 166c-18 108 55 210 164 228zM865 398c6 2 9 7 7 16c-1 6 -10 61 -14 88c-1 7 -6 12 -12 13c-3 0 -49 7 -88 12c-10 21 -22 40 -36 57
c13 38 27 82 28 85c2 6 1 12 -6 16c-6 4 -51 37 -73 52c-6 5 -13 5 -17 1c-3 -2 -40 -29 -72 -53c-21 7 -43 12 -65 15c-18 35 -39 76 -41 80c-2 6 -7 8 -16 7c-6 -2 -61 -10 -88 -15c-7 -1 -12 -5 -13 -12c0 -3 -6 -49 -12 -88c-21 -10 -40 -22 -57 -35
c-38 12 -82 26 -85 27c-6 3 -11 1 -16 -6c-4 -6 -37 -51 -52 -73c-5 -6 -5 -13 -1 -17c2 -3 30 -40 53 -72c-7 -21 -12 -42 -15 -65c-35 -18 -76 -39 -80 -40c-5 -3 -8 -8 -6 -16c1 -7 10 -62 14 -89c1 -7 6 -12 12 -12c3 -1 49 -7 88 -13c10 -21 22 -39 35 -57
c-12 -38 -26 -81 -27 -85c-2 -6 -1 -11 6 -16c6 -4 51 -36 73 -52c6 -5 13 -5 17 -1c3 2 40 30 72 53c21 -7 43 -12 65 -15c18 -35 39 -76 41 -79c2 -6 7 -9 16 -7c6 1 61 10 88 14c7 1 12 6 13 12c0 4 7 49 12 88c21 10 40 22 57 36c38 -13 82 -27 85 -28c6 -2 11 0 16 6
c4 6 37 51 52 73c5 6 5 13 1 18c-2 2 -30 39 -53 71c7 21 12 43 15 65c35 18 76 39 79 41zM458 530c-75 -12 -126 -83 -114 -158c12 -68 70 -116 136 -116c7 0 15 1 22 2c75 13 126 84 114 159c-12 68 -70 115 -136 115c-7 0 -15 -1 -22 -2z" />
</svg>
