<?xml version="1.0" standalone="no"?>
<!DOCTYPE svg PUBLIC "-//W3C//DTD SVG 1.1//EN" "http://www.w3.org/Graphics/SVG/1.1/DTD/svg11.dtd" >
<svg xmlns="http://www.w3.org/2000/svg" xmlns:xlink="http://www.w3.org/1999/xlink" version="1.1" viewBox="-10 0 1017 1000">
   <path fill="currentColor"
d="M503 492c-31 0 -63 55 -63 83c0 12 4 22 11 29c11 13 29 19 54 19c37 0 56 -14 56 -42s-25 -89 -58 -89zM326 219c-70 0 -114 67 -114 132s44 131 114 131c71 0 114 -65 114 -131s-43 -132 -114 -132zM669 219c-70 0 -113 67 -113 132s43 131 113 131
c71 0 114 -65 114 -131s-43 -132 -114 -132zM322 708v-60c-127 -37 -235 -125 -235 -267c0 -14 2 -29 5 -45c31 -208 206 -335 411 -335c110 0 203 33 280 99c80 69 136 174 136 281c0 149 -116 236 -250 271v56c0 47 -39 77 -84 77c-15 0 -27 -4 -35 -11
c-16 11 -33 17 -52 17c-20 0 -38 -6 -54 -18c-9 7 -22 12 -38 12c-46 0 -84 -29 -84 -77z" />
</svg>
