<?xml version="1.0" standalone="no"?>
<!DOCTYPE svg PUBLIC "-//W3C//DTD SVG 1.1//EN" "http://www.w3.org/Graphics/SVG/1.1/DTD/svg11.dtd" >
<svg xmlns="http://www.w3.org/2000/svg" xmlns:xlink="http://www.w3.org/1999/xlink" version="1.1" viewBox="-10 0 1017 1000">
   <path fill="currentColor"
d="M246 257c-23 26 -34 57 -34 94c0 36 11 67 34 93c22 26 49 38 80 38c32 0 58 -12 81 -38c22 -26 33 -57 33 -93c0 -37 -11 -68 -33 -94c-23 -25 -49 -38 -81 -38c-31 0 -58 13 -80 38zM462 520c-14 19 -22 37 -22 55c0 12 4 22 11 29c11 13 29 19 54 19
c37 0 56 -14 56 -42c0 -18 -6 -38 -19 -58c-12 -20 -25 -31 -39 -31c-13 0 -27 10 -41 28zM589 257c-21 26 -33 57 -33 94c0 36 11 67 33 93s49 38 80 38c32 0 59 -12 81 -38s33 -57 33 -93c0 -37 -11 -68 -33 -94c-22 -25 -49 -38 -81 -38c-31 0 -58 13 -80 38zM322 708
v-60c-75 -22 -132 -56 -173 -103s-62 -102 -62 -164c0 -14 2 -29 5 -45c14 -95 57 -174 130 -237c77 -65 171 -98 281 -98s203 33 280 99c73 63 117 141 132 236c3 16 4 31 4 45c0 64 -21 119 -63 166c-44 49 -106 84 -187 105v56c0 21 -7 38 -21 52s-32 22 -53 24
c-20 2 -35 -2 -45 -10c-16 11 -33 17 -52 17c-20 0 -38 -6 -54 -18c-11 9 -27 13 -49 11c-20 -2 -38 -9 -52 -23c-14 -15 -21 -32 -21 -53zM246 257c22 -25 49 -38 80 -38c32 0 58 13 81 38c22 26 33 57 33 94c0 36 -11 67 -33 93c-23 26 -49 38 -81 38
c-31 0 -58 -12 -80 -38c-23 -26 -34 -57 -34 -93c0 -37 11 -68 34 -94zM265 274c-18 21 -28 46 -28 77c0 30 10 56 28 76v0c18 21 38 30 61 30c24 0 44 -9 62 -30v0c18 -20 27 -46 27 -76c0 -31 -9 -56 -27 -77v0c-18 -21 -38 -30 -62 -30c-23 0 -43 9 -61 30zM462 520
c14 -18 28 -28 41 -28c14 0 27 11 39 31c13 20 19 40 19 58c0 28 -19 42 -56 42c-25 0 -43 -6 -54 -19c-7 -7 -11 -17 -11 -29c0 -18 8 -36 22 -55zM482 535c-12 16 -16 29 -16 40c0 7 1 10 3 12c6 6 16 11 36 11c30 0 30 -9 30 -17c0 -13 -4 -28 -14 -45s-17 -18 -18 -18
s-9 1 -21 17zM589 257c22 -25 49 -38 80 -38c32 0 59 13 81 38c22 26 33 57 33 94c0 36 -11 67 -33 93s-49 38 -81 38c-31 0 -58 -12 -80 -38s-33 -57 -33 -93c0 -37 12 -68 33 -94zM608 274c-17 20 -26 46 -26 77s9 56 26 77v0c18 20 38 29 61 29c24 0 45 -9 62 -29v0
c18 -21 27 -46 27 -77s-9 -57 -27 -77v0c-17 -21 -37 -30 -62 -30c-23 0 -43 9 -61 30zM322 648v60c0 21 7 38 21 53c14 14 32 21 52 23c22 2 38 -2 49 -11c16 12 34 18 54 18c19 0 36 -6 52 -17c10 8 25 12 45 10c21 -2 39 -10 53 -24s21 -31 21 -52v-56
c81 -21 143 -56 187 -105c42 -47 63 -102 63 -166c0 -14 -1 -29 -4 -45c-15 -95 -59 -173 -132 -236c-77 -66 -170 -99 -280 -99s-204 33 -281 98c-73 63 -116 142 -130 237c-3 16 -5 31 -5 45c0 62 21 117 62 164s98 81 173 103zM297 708v-42c-67 -22 -125 -56 -167 -104
c-45 -52 -68 -112 -68 -181c0 -16 2 -33 5 -49c15 -101 61 -185 139 -252c82 -70 181 -104 297 -104s215 35 296 105c78 66 125 150 141 251c3 15 5 30 5 49c0 69 -24 131 -70 183c-45 50 -107 86 -181 107v37c0 27 -9 51 -28 70c-18 18 -41 29 -68 31c-18 2 -35 0 -48 -6
c-7 4 -29 13 -52 13c-19 0 -38 -5 -55 -14c-5 3 -23 9 -49 7s-50 -12 -69 -31c-18 -18 -28 -42 -28 -70z" />
</svg>
