<?xml version="1.0" standalone="no"?>
<!DOCTYPE svg PUBLIC "-//W3C//DTD SVG 1.1//EN" "http://www.w3.org/Graphics/SVG/1.1/DTD/svg11.dtd" >
<svg xmlns="http://www.w3.org/2000/svg" xmlns:xlink="http://www.w3.org/1999/xlink" version="1.1" viewBox="-10 0 679 1000">
   <path fill="currentColor"
d="M303 192c8 -21 14 -44 17 -67h29c4 25 10 47 18 68c34 84 125 155 214 165v28c-11 1 -21 3 -28 5c-8 1 -16 4 -26 8c-43 14 -98 54 -123 91c-17 21 -29 41 -38 62c-3 10 -6 20 -9 31s-6 23 -8 36h-29c-4 -25 -10 -47 -18 -68c-32 -85 -125 -155 -214 -165v-28
c17 -2 35 -6 54 -13c46 -14 94 -55 124 -91c15 -20 26 -40 37 -62z" />
</svg>
