<?xml version="1.0" standalone="no"?>
<!DOCTYPE svg PUBLIC "-//W3C//DTD SVG 1.1//EN" "http://www.w3.org/Graphics/SVG/1.1/DTD/svg11.dtd" >
<svg xmlns="http://www.w3.org/2000/svg" xmlns:xlink="http://www.w3.org/1999/xlink" version="1.1" viewBox="-10 0 679 1000">
   <path fill="currentColor"
d="M303 192c8 -21 14 -44 17 -67h29c4 25 10 47 18 68c8 20 21 41 38 62c16 21 36 40 59 56s44 28 63 34c19 7 37 11 54 13v28c-11 1 -21 3 -28 5c-8 1 -16 4 -26 8c-9 3 -18 7 -29 13s-23 13 -35 21s-22 17 -32 26s-19 19 -27 31c-17 21 -29 41 -38 62c-3 10 -6 20 -9 31
s-6 23 -8 36h-29c-4 -25 -10 -47 -18 -68s-20 -42 -37 -63s-37 -39 -60 -55s-44 -28 -63 -35c-19 -6 -37 -10 -54 -12v-28c17 -2 35 -6 54 -13c20 -6 41 -18 64 -34c22 -16 42 -35 60 -57c8 -11 15 -21 21 -31s11 -21 16 -31zM88 358v28c17 2 35 6 54 12c19 7 40 19 63 35
s43 34 60 55s29 42 37 63s14 43 18 68h29c2 -13 5 -25 8 -36s6 -21 9 -31c9 -21 21 -41 38 -62c8 -12 17 -22 27 -31s20 -18 32 -26s24 -15 35 -21s20 -10 29 -13c10 -4 18 -7 26 -8c7 -2 17 -4 28 -5v-28c-17 -2 -35 -6 -54 -13c-19 -6 -40 -18 -63 -34s-43 -35 -59 -56
c-17 -21 -30 -42 -38 -62c-8 -21 -14 -43 -18 -68h-29c-3 23 -9 46 -17 67c-5 10 -10 21 -16 31s-13 20 -21 31c-18 22 -38 41 -60 57c-23 16 -44 28 -64 34c-19 7 -37 11 -54 13zM385 559c-1 5 -5 17 -8 29c-3 11 -6 22 -9 35c-1 9 -11 16 -19 16h-29c-9 0 -18 -8 -19 -17
c-4 -23 -10 -45 -18 -64c-7 -18 -18 -37 -34 -57c-15 -20 -34 -37 -55 -52c-22 -15 -42 -25 -58 -31c-16 -5 -41 -11 -51 -12s-18 -10 -18 -20v-28c0 -10 8 -19 18 -20c16 -2 32 -6 51 -12c17 -6 36 -16 58 -32c24 -16 45 -39 56 -52c8 -11 15 -20 20 -29
c5 -10 10 -19 14 -29c7 -19 13 -40 16 -62c2 -9 11 -17 20 -17h29c9 0 18 8 19 17c4 23 10 44 18 63c7 18 19 38 34 58c16 19 34 37 56 52c21 15 41 25 58 31s34 10 50 12c9 1 18 10 18 20v28c0 10 -8 19 -18 20c-12 1 -21 3 -27 4s-13 4 -23 8c-10 3 -24 10 -27 12
c-10 5 -21 12 -32 19c-11 8 -21 16 -30 24c-9 9 -17 18 -25 29c-16 20 -27 39 -35 57zM303 192c8 -21 14 -44 17 -67h29c4 25 10 47 18 68c8 20 21 41 38 62c16 21 36 40 59 56s44 28 63 34c19 7 37 11 54 13v28c-11 1 -21 3 -28 5c-8 1 -16 4 -26 8c-9 3 -18 7 -29 13
s-23 13 -35 21s-22 17 -32 26s-19 19 -27 31c-17 21 -29 41 -38 62c-3 10 -6 20 -9 31s-6 23 -8 36h-29c-4 -25 -10 -47 -18 -68s-20 -42 -37 -63s-37 -39 -60 -55s-44 -28 -63 -35c-19 -6 -37 -10 -54 -12v-28c17 -2 35 -6 54 -13c20 -6 41 -18 64 -34
c22 -16 42 -35 60 -57c8 -11 15 -21 21 -31s11 -21 16 -31z" />
</svg>
